<?xml version="1.0" encoding="UTF-8"?>
<svg width="24px" height="25px" viewBox="0 0 24 25" version="1.1" xmlns="http://www.w3.org/2000/svg" xmlns:xlink="http://www.w3.org/1999/xlink">
    <!-- Generator: Sketch 50 (54983) - http://www.bohemiancoding.com/sketch -->
    <title>书</title>
    <desc>Created with Sketch.</desc>
    <defs></defs>
    <g id="Page-1" stroke="none" stroke-width="1" fill="none" fill-rule="evenodd">
        <g id="我的-未发币的" transform="translate(-766.000000, -204.000000)" fill="#6C9BDF">
            <g id="Group-8" transform="translate(696.000000, 204.000000)">
                <path d="M73.3113964,24.9703376 L72.2074679,24.9703376 C70.9874321,24.9703376 70.0000036,24.1153055 70.0000036,23.062925 L70.0000036,2.08033776 C70.0000036,1.02616745 70.9874321,0.172925208 72.2074679,0.172925208 L92.0756107,0.172925208 C92.8905036,0.172925208 93.593325,0.558549101 93.9769679,1.12667777 L72.2074679,1.12667777 C71.5973964,1.12667777 71.1039321,1.55331432 71.1039321,2.08033776 L71.1039321,3.03421376 C71.1039321,3.56136063 71.5973964,3.98784288 72.2074679,3.98784288 L73.3113964,3.98784288 L73.3113964,24.9703376 Z M89,5 L89,11 L86.0490594,9.52313574 L83,11 L83,5 L89,5 Z M94,23.1817941 C94,24.1849797 93.0537313,25 91.8888434,25 L75,25 L75,5 L82.3888946,5 L82.3888946,13.2954816 L86.1264612,10.8505384 L89.777755,13.2954816 L89.777755,5 L94,5 L94,23.1817941 Z" id="书"></path>
            </g>
        </g>
    </g>
</svg>