<?xml version="1.0" encoding="UTF-8"?>
<svg width="22px" height="25px" viewBox="0 0 22 25" version="1.1" xmlns="http://www.w3.org/2000/svg" xmlns:xlink="http://www.w3.org/1999/xlink">
    <!-- Generator: Sketch 50 (54983) - http://www.bohemiancoding.com/sketch -->
    <title>身份</title>
    <desc>Created with Sketch.</desc>
    <defs></defs>
    <g id="Page-1" stroke="none" stroke-width="1" fill="none" fill-rule="evenodd">
        <g id="我的-审核失败的" transform="translate(-696.000000, -205.000000)" fill="#2FDB9B">
            <g id="1" transform="translate(419.000000, 104.000000)">
                <g id="Group-8" transform="translate(277.000000, 100.000000)">
                    <path d="M17.7276807,10.6772523 L10.9014491,16.9952937 C10.7169563,17.1660516 10.3479708,17.3368094 9.97898534,17.3368094 C9.60999985,17.3368094 9.24101435,17.1660516 9.05652161,16.9952937 L5.73565216,13.7508941 C5.55115941,13.5801362 5.36666667,13.2386204 5.36666667,12.8971047 C5.36666667,12.5555889 5.55115941,12.2140732 5.73565216,12.0433153 C6.2891304,11.5310417 7.02710139,11.5310417 7.58057963,12.0433153 L9.97898534,14.2631677 L15.8827532,8.7989157 C16.4362315,8.28664208 17.1742025,8.28664208 17.7276807,8.7989157 C17.9121735,8.96967358 18.0966662,9.31118933 18.0966662,9.65270508 C18.0966662,10.1649787 18.0966662,10.5064944 17.7276807,10.6772523 Z M22,5.03472688 C22,4.58223415 21.6740741,4.12974141 21.1851852,4.12974141 L20.2074074,4.12974141 C20.2074074,4.12974141 18.0888889,4.12974141 15.9703704,3.22475594 C13.6888889,2.6214323 12.2222222,1.56561592 12.2222222,1.56561592 L11.5703704,1.11312318 C11.2444444,0.962292272 10.7555556,0.962292272 10.4296296,1.11312318 L9.94074074,1.56561592 C9.94074074,1.56561592 8.47407407,2.47060139 6.19259259,3.37558685 C4.07407407,4.12974141 2.11851852,4.28057232 1.95555556,4.28057232 L0.814814815,4.28057232 C0.325925926,4.28057232 0,4.73306506 0,5.18555779 L0,14.4616588 C0,16.8749534 1.46666667,19.4390789 3.91111111,21.776958 C6.19259259,23.8885908 8.96296296,25.0952381 11,25.0952381 C12.9555556,25.0952381 15.7259259,23.8885908 18.0888889,21.776958 C20.6962963,19.5144944 22,16.9503689 22,14.4616588 L22,5.03472688 Z" id="身份"></path>
                </g>
            </g>
        </g>
    </g>
</svg>